<?xml version="1.0" encoding="utf-8"?>
<!DOCTYPE svg PUBLIC "-//W3C//DTD SVG 1.1//EN" "http://www.w3.org/Graphics/SVG/1.1/DTD/svg11.dtd">
<svg version="1.1" xmlns="http://www.w3.org/2000/svg" xmlns:xlink="http://www.w3.org/1999/xlink" x="0px" y="0px"
	 width="96.625px" height="23.375px" viewBox="0 4.125 96.625 23.375" style="enable-background:new 0 4.125 96.625 23.375;"
	 xml:space="preserve">
<g id="fuhao">
	<path style="fill:#ffffff;" d="M92.383,9.95l-9.619,16.71h6.948l5.58-9.67c0.352-0.61,0.352-1.37,0-1.99L92.383,9.95L92.383,9.95z
		 M89.712,5.33h-6.969l5.5,9.55l3.489-6.05L89.712,5.33z M8.32,17.13l-3.49,6.05l2.02,3.49h6.98L8.32,17.13z M1.27,17l2.91,5.05l0,0
		l0,0L13.8,5.34H6.85L1.27,15C0.92,15.62,0.92,16.38,1.27,17z"/>
</g>
<g id="f2ex">
	<g>
		<path style="fill:#ffffff;stroke:#ffffff;stroke-miterlimit:10;" d="M19.477,26.599h-2.73V5.348h12.406v2.612h-9.676v6.975h8.727
			v2.553h-8.727V26.599z"/>
		<path style="fill:#ffffff;stroke:#ffffff;stroke-miterlimit:10;" d="M44.23,26.599H31.289v-2.73
			c3.879-3.898,6.361-6.44,7.449-7.628c0.971-1.088,1.623-1.915,1.959-2.479c0.336-0.563,0.506-1.261,0.506-2.092
			c0-0.851-0.338-1.603-1.01-2.256c-0.674-0.653-1.572-0.979-2.701-0.979c-1.029,0-1.859,0.302-2.492,0.905
			c-0.635,0.604-1.039,1.251-1.217,1.944l-2.494-1.009c0.336-1.068,1.039-2.078,2.107-3.027s2.453-1.425,4.156-1.425
			c1.879,0,3.422,0.574,4.629,1.722c1.207,1.148,1.811,2.523,1.811,4.125c0,1.979-1.078,4.096-3.234,6.352l-5.938,5.965h9.41V26.599
			z"/>
		<path style="fill:#ffffff;stroke:#ffffff;stroke-miterlimit:10;" d="M60.078,7.959h-9.676v6.737h8.727v2.552h-8.727v6.737h9.676
			v2.612H47.672V5.348h12.406V7.959z"/>
		<path style="fill:#ffffff;stroke:#ffffff;stroke-miterlimit:10;" d="M62.096,26.599l7.123-10.981l-6.707-10.27h3.266l5.164,8.132
			h0.119l5.164-8.132h3.264l-6.707,10.27l7.123,10.981h-3.205l-5.639-8.696h-0.119l-5.639,8.696H62.096z"/>
	</g>
</g>
</svg>
